<?xml version="1.0" standalone="no"?>
<!DOCTYPE svg PUBLIC "-//W3C//DTD SVG 20010904//EN"
 "http://www.w3.org/TR/2001/REC-SVG-20010904/DTD/svg10.dtd">
<svg version="1.0" xmlns="http://www.w3.org/2000/svg"
 width="500.000000pt" height="500.000000pt" viewBox="0 0 500.000000 500.000000"
 preserveAspectRatio="xMidYMid meet">
<metadata>
Created by potrace 1.11, written by Peter Selinger 2001-2013
</metadata>
<g transform="translate(0.000000,500.000000) scale(0.100000,-0.100000)"
fill="#000000" stroke="none">
<path d="M2835 4695 c-93 -46 -258 -127 -366 -180 l-196 -96 -1 -1852 c0
-1019 -1 -1858 -1 -1865 -1 -14 -47 -12 -151 8 -30 6 -68 13 -85 16 -56 9
-214 54 -317 90 -191 67 -425 192 -558 300 -62 50 -175 167 -219 228 -77 104
-134 237 -156 361 -8 46 -8 187 0 230 65 352 385 667 867 855 89 35 236 82
299 96 13 3 29 6 34 8 6 1 37 8 70 15 33 7 67 14 75 17 13 3 15 37 15 236 l0
233 -30 -1 c-63 -1 -311 -42 -415 -70 -8 -2 -33 -8 -55 -14 -22 -6 -49 -13
-60 -15 -122 -28 -376 -122 -541 -200 -546 -258 -914 -654 -999 -1074 -18 -85
-24 -271 -12 -346 91 -597 692 -1108 1578 -1344 111 -30 262 -63 344 -75 321
-50 305 -50 450 19 228 108 260 123 308 145 81 36 302 142 307 147 10 10 5
4213 -5 4212 -5 0 -86 -38 -180 -84z"/>
<path d="M3155 3166 c0 -202 2 -237 15 -241 8 -2 68 -16 133 -30 123 -27 295
-82 407 -130 90 -38 197 -93 204 -104 3 -5 -14 -20 -38 -32 -173 -94 -344
-195 -338 -200 4 -3 75 -20 157 -38 83 -18 233 -50 335 -73 102 -22 194 -42
205 -44 43 -8 62 -13 128 -28 37 -9 82 -18 100 -21 17 -3 81 -17 142 -31 60
-13 119 -26 130 -29 11 -2 65 -13 119 -25 101 -21 129 -21 121 2 -2 7 -6 47
-9 88 -3 41 -8 84 -10 95 -2 11 -7 60 -11 108 -3 48 -8 97 -10 108 -2 11 -7
55 -10 97 -10 134 -24 277 -30 322 -2 14 -7 58 -10 97 -4 40 -8 81 -10 90 -2
10 -4 23 -4 30 -1 7 -55 -19 -122 -58 -66 -38 -122 -69 -124 -69 -1 0 -33 -18
-71 -40 -64 -37 -70 -39 -91 -24 -82 53 -307 159 -466 218 -94 35 -314 102
-367 112 -14 3 -41 9 -60 14 -82 21 -276 57 -360 66 l-55 6 0 -236z"/>
</g>
</svg>
